<mxfile host="app.diagrams.net" modified="2021-01-19T19:12:47.967Z" agent="5.0 (Windows NT 10.0; Win64; x64) AppleWebKit/537.36 (KHTML, like Gecko) Chrome/83.0.4103.116 Safari/537.36" etag="_ESqaYmWnFdamIWR8cu3" version="14.2.5" type="github">
  <diagram id="WgqjgqW9wfhbfb5YaRFJ" name="Page-1">
    <mxGraphModel dx="2370" dy="1323" grid="1" gridSize="10" guides="1" tooltips="1" connect="1" arrows="1" fold="1" page="1" pageScale="1" pageWidth="1200" pageHeight="1600" math="0" shadow="0">
      <root>
        <mxCell id="0" />
        <mxCell id="1" parent="0" />
        <mxCell id="DqNzJnJvb0vO9Nc4sZQ4-1" value="BP_StraightTile" style="swimlane;fontStyle=1;align=center;verticalAlign=top;childLayout=stackLayout;horizontal=1;startSize=26;horizontalStack=0;resizeParent=1;resizeParentMax=0;resizeLast=0;collapsible=1;marginBottom=0;" parent="1" vertex="1">
          <mxGeometry x="220" y="160" width="160" height="180" as="geometry" />
        </mxCell>
        <mxCell id="DqNzJnJvb0vO9Nc4sZQ4-2" value="TileSpawnArrow&#xa;DecorSpawns&#xa;PowerSpawns&#xa;int: DecorDensity&#xa;Texture" style="text;strokeColor=none;fillColor=none;align=left;verticalAlign=top;spacingLeft=4;spacingRight=4;overflow=hidden;rotatable=0;points=[[0,0.5],[1,0.5]];portConstraint=eastwest;" parent="DqNzJnJvb0vO9Nc4sZQ4-1" vertex="1">
          <mxGeometry y="26" width="160" height="84" as="geometry" />
        </mxCell>
        <mxCell id="DqNzJnJvb0vO9Nc4sZQ4-3" value="" style="line;strokeWidth=1;fillColor=none;align=left;verticalAlign=middle;spacingTop=-1;spacingLeft=3;spacingRight=3;rotatable=0;labelPosition=right;points=[];portConstraint=eastwest;" parent="DqNzJnJvb0vO9Nc4sZQ4-1" vertex="1">
          <mxGeometry y="110" width="160" height="8" as="geometry" />
        </mxCell>
        <mxCell id="DqNzJnJvb0vO9Nc4sZQ4-4" value="SpawnTile()&#xa;DestroySelf()&#xa;SetTexture()" style="text;strokeColor=none;fillColor=none;align=left;verticalAlign=top;spacingLeft=4;spacingRight=4;overflow=hidden;rotatable=0;points=[[0,0.5],[1,0.5]];portConstraint=eastwest;" parent="DqNzJnJvb0vO9Nc4sZQ4-1" vertex="1">
          <mxGeometry y="118" width="160" height="62" as="geometry" />
        </mxCell>
        <mxCell id="DqNzJnJvb0vO9Nc4sZQ4-5" value="" style="endArrow=none;html=1;edgeStyle=orthogonalEdgeStyle;" parent="1" edge="1">
          <mxGeometry relative="1" as="geometry">
            <mxPoint x="299.5" y="340" as="sourcePoint" />
            <mxPoint x="300" y="460" as="targetPoint" />
            <Array as="points">
              <mxPoint x="300" y="370" />
              <mxPoint x="300" y="370" />
            </Array>
          </mxGeometry>
        </mxCell>
        <mxCell id="DqNzJnJvb0vO9Nc4sZQ4-6" value="parent" style="edgeLabel;resizable=0;html=1;align=left;verticalAlign=bottom;" parent="DqNzJnJvb0vO9Nc4sZQ4-5" connectable="0" vertex="1">
          <mxGeometry x="-1" relative="1" as="geometry">
            <mxPoint y="20" as="offset" />
          </mxGeometry>
        </mxCell>
        <mxCell id="DqNzJnJvb0vO9Nc4sZQ4-7" value="child" style="edgeLabel;resizable=0;html=1;align=right;verticalAlign=bottom;" parent="DqNzJnJvb0vO9Nc4sZQ4-5" connectable="0" vertex="1">
          <mxGeometry x="1" relative="1" as="geometry" />
        </mxCell>
        <mxCell id="DqNzJnJvb0vO9Nc4sZQ4-8" value="BP_LeftTile" style="swimlane;fontStyle=1;align=center;verticalAlign=top;childLayout=stackLayout;horizontal=1;startSize=26;horizontalStack=0;resizeParent=1;resizeParentMax=0;resizeLast=0;collapsible=1;marginBottom=0;" parent="1" vertex="1">
          <mxGeometry x="220" y="460" width="160" height="180" as="geometry" />
        </mxCell>
        <mxCell id="DqNzJnJvb0vO9Nc4sZQ4-9" value="TileSpawnArrow&#xa;DecorSpawns&#xa;PowerSpawns&#xa;int: DecorDensity&#xa;Texture" style="text;strokeColor=none;fillColor=none;align=left;verticalAlign=top;spacingLeft=4;spacingRight=4;overflow=hidden;rotatable=0;points=[[0,0.5],[1,0.5]];portConstraint=eastwest;" parent="DqNzJnJvb0vO9Nc4sZQ4-8" vertex="1">
          <mxGeometry y="26" width="160" height="84" as="geometry" />
        </mxCell>
        <mxCell id="DqNzJnJvb0vO9Nc4sZQ4-10" value="" style="line;strokeWidth=1;fillColor=none;align=left;verticalAlign=middle;spacingTop=-1;spacingLeft=3;spacingRight=3;rotatable=0;labelPosition=right;points=[];portConstraint=eastwest;" parent="DqNzJnJvb0vO9Nc4sZQ4-8" vertex="1">
          <mxGeometry y="110" width="160" height="8" as="geometry" />
        </mxCell>
        <mxCell id="DqNzJnJvb0vO9Nc4sZQ4-11" value="SpawnTile()&#xa;DestroySelf()&#xa;SetTexture()" style="text;strokeColor=none;fillColor=none;align=left;verticalAlign=top;spacingLeft=4;spacingRight=4;overflow=hidden;rotatable=0;points=[[0,0.5],[1,0.5]];portConstraint=eastwest;" parent="DqNzJnJvb0vO9Nc4sZQ4-8" vertex="1">
          <mxGeometry y="118" width="160" height="62" as="geometry" />
        </mxCell>
        <mxCell id="DqNzJnJvb0vO9Nc4sZQ4-12" value="" style="line;strokeWidth=1;fillColor=none;align=left;verticalAlign=middle;spacingTop=-1;spacingLeft=3;spacingRight=3;rotatable=0;labelPosition=right;points=[];portConstraint=eastwest;" parent="1" vertex="1">
          <mxGeometry x="300" y="400" width="940" height="8" as="geometry" />
        </mxCell>
        <mxCell id="DqNzJnJvb0vO9Nc4sZQ4-13" value="child" style="edgeLabel;resizable=0;html=1;align=right;verticalAlign=bottom;" parent="1" connectable="0" vertex="1">
          <mxGeometry x="469.9999922841291" y="459.9986111432604" as="geometry">
            <mxPoint x="8" y="3" as="offset" />
          </mxGeometry>
        </mxCell>
        <mxCell id="DqNzJnJvb0vO9Nc4sZQ4-15" value="" style="line;strokeWidth=1;fillColor=none;align=left;verticalAlign=middle;spacingTop=-1;spacingLeft=3;spacingRight=3;rotatable=0;labelPosition=right;points=[];portConstraint=eastwest;direction=south;" parent="1" vertex="1">
          <mxGeometry x="480" y="408" width="8" height="58" as="geometry" />
        </mxCell>
        <mxCell id="DqNzJnJvb0vO9Nc4sZQ4-16" value="BP_LeftTile" style="swimlane;fontStyle=1;align=center;verticalAlign=top;childLayout=stackLayout;horizontal=1;startSize=26;horizontalStack=0;resizeParent=1;resizeParentMax=0;resizeLast=0;collapsible=1;marginBottom=0;" parent="1" vertex="1">
          <mxGeometry x="700" y="460" width="160" height="180" as="geometry" />
        </mxCell>
        <mxCell id="DqNzJnJvb0vO9Nc4sZQ4-17" value="TileSpawnArrow&#xa;DecorSpawns&#xa;PowerSpawns&#xa;int: DecorDensity&#xa;Texture" style="text;strokeColor=none;fillColor=none;align=left;verticalAlign=top;spacingLeft=4;spacingRight=4;overflow=hidden;rotatable=0;points=[[0,0.5],[1,0.5]];portConstraint=eastwest;" parent="DqNzJnJvb0vO9Nc4sZQ4-16" vertex="1">
          <mxGeometry y="26" width="160" height="84" as="geometry" />
        </mxCell>
        <mxCell id="DqNzJnJvb0vO9Nc4sZQ4-18" value="" style="line;strokeWidth=1;fillColor=none;align=left;verticalAlign=middle;spacingTop=-1;spacingLeft=3;spacingRight=3;rotatable=0;labelPosition=right;points=[];portConstraint=eastwest;" parent="DqNzJnJvb0vO9Nc4sZQ4-16" vertex="1">
          <mxGeometry y="110" width="160" height="8" as="geometry" />
        </mxCell>
        <mxCell id="DqNzJnJvb0vO9Nc4sZQ4-19" value="SpawnTile()&#xa;DestroySelf()&#xa;SetTexture()" style="text;strokeColor=none;fillColor=none;align=left;verticalAlign=top;spacingLeft=4;spacingRight=4;overflow=hidden;rotatable=0;points=[[0,0.5],[1,0.5]];portConstraint=eastwest;" parent="DqNzJnJvb0vO9Nc4sZQ4-16" vertex="1">
          <mxGeometry y="118" width="160" height="62" as="geometry" />
        </mxCell>
        <mxCell id="DqNzJnJvb0vO9Nc4sZQ4-20" value="BP_RampUpTile&#xa;" style="swimlane;fontStyle=1;align=center;verticalAlign=top;childLayout=stackLayout;horizontal=1;startSize=26;horizontalStack=0;resizeParent=1;resizeParentMax=0;resizeLast=0;collapsible=1;marginBottom=0;" parent="1" vertex="1">
          <mxGeometry x="540" y="460" width="160" height="180" as="geometry" />
        </mxCell>
        <mxCell id="DqNzJnJvb0vO9Nc4sZQ4-21" value="TileSpawnArrow&#xa;DecorSpawns&#xa;PowerSpawns&#xa;int: DecorDensity&#xa;Texture" style="text;strokeColor=none;fillColor=none;align=left;verticalAlign=top;spacingLeft=4;spacingRight=4;overflow=hidden;rotatable=0;points=[[0,0.5],[1,0.5]];portConstraint=eastwest;" parent="DqNzJnJvb0vO9Nc4sZQ4-20" vertex="1">
          <mxGeometry y="26" width="160" height="84" as="geometry" />
        </mxCell>
        <mxCell id="DqNzJnJvb0vO9Nc4sZQ4-22" value="" style="line;strokeWidth=1;fillColor=none;align=left;verticalAlign=middle;spacingTop=-1;spacingLeft=3;spacingRight=3;rotatable=0;labelPosition=right;points=[];portConstraint=eastwest;" parent="DqNzJnJvb0vO9Nc4sZQ4-20" vertex="1">
          <mxGeometry y="110" width="160" height="8" as="geometry" />
        </mxCell>
        <mxCell id="DqNzJnJvb0vO9Nc4sZQ4-23" value="SpawnTile()&#xa;DestroySelf()&#xa;SetTexture()" style="text;strokeColor=none;fillColor=none;align=left;verticalAlign=top;spacingLeft=4;spacingRight=4;overflow=hidden;rotatable=0;points=[[0,0.5],[1,0.5]];portConstraint=eastwest;" parent="DqNzJnJvb0vO9Nc4sZQ4-20" vertex="1">
          <mxGeometry y="118" width="160" height="62" as="geometry" />
        </mxCell>
        <mxCell id="DqNzJnJvb0vO9Nc4sZQ4-24" value="BP_RightTile" style="swimlane;fontStyle=1;align=center;verticalAlign=top;childLayout=stackLayout;horizontal=1;startSize=26;horizontalStack=0;resizeParent=1;resizeParentMax=0;resizeLast=0;collapsible=1;marginBottom=0;" parent="1" vertex="1">
          <mxGeometry x="380" y="460" width="160" height="180" as="geometry" />
        </mxCell>
        <mxCell id="DqNzJnJvb0vO9Nc4sZQ4-25" value="TileSpawnArrow&#xa;DecorSpawns&#xa;PowerSpawns&#xa;int: DecorDensity&#xa;Texture" style="text;strokeColor=none;fillColor=none;align=left;verticalAlign=top;spacingLeft=4;spacingRight=4;overflow=hidden;rotatable=0;points=[[0,0.5],[1,0.5]];portConstraint=eastwest;" parent="DqNzJnJvb0vO9Nc4sZQ4-24" vertex="1">
          <mxGeometry y="26" width="160" height="84" as="geometry" />
        </mxCell>
        <mxCell id="DqNzJnJvb0vO9Nc4sZQ4-26" value="" style="line;strokeWidth=1;fillColor=none;align=left;verticalAlign=middle;spacingTop=-1;spacingLeft=3;spacingRight=3;rotatable=0;labelPosition=right;points=[];portConstraint=eastwest;" parent="DqNzJnJvb0vO9Nc4sZQ4-24" vertex="1">
          <mxGeometry y="110" width="160" height="8" as="geometry" />
        </mxCell>
        <mxCell id="DqNzJnJvb0vO9Nc4sZQ4-27" value="SpawnTile()&#xa;DestroySelf()&#xa;SetTexture()" style="text;strokeColor=none;fillColor=none;align=left;verticalAlign=top;spacingLeft=4;spacingRight=4;overflow=hidden;rotatable=0;points=[[0,0.5],[1,0.5]];portConstraint=eastwest;" parent="DqNzJnJvb0vO9Nc4sZQ4-24" vertex="1">
          <mxGeometry y="118" width="160" height="62" as="geometry" />
        </mxCell>
        <mxCell id="DqNzJnJvb0vO9Nc4sZQ4-28" value="BP_SplitTile" style="swimlane;fontStyle=1;align=center;verticalAlign=top;childLayout=stackLayout;horizontal=1;startSize=26;horizontalStack=0;resizeParent=1;resizeParentMax=0;resizeLast=0;collapsible=1;marginBottom=0;" parent="1" vertex="1">
          <mxGeometry x="860" y="460" width="160" height="180" as="geometry" />
        </mxCell>
        <mxCell id="DqNzJnJvb0vO9Nc4sZQ4-29" value="TileSpawnArrow&#xa;DecorSpawns&#xa;PowerSpawns&#xa;int: DecorDensity&#xa;Texture" style="text;strokeColor=none;fillColor=none;align=left;verticalAlign=top;spacingLeft=4;spacingRight=4;overflow=hidden;rotatable=0;points=[[0,0.5],[1,0.5]];portConstraint=eastwest;" parent="DqNzJnJvb0vO9Nc4sZQ4-28" vertex="1">
          <mxGeometry y="26" width="160" height="84" as="geometry" />
        </mxCell>
        <mxCell id="DqNzJnJvb0vO9Nc4sZQ4-30" value="" style="line;strokeWidth=1;fillColor=none;align=left;verticalAlign=middle;spacingTop=-1;spacingLeft=3;spacingRight=3;rotatable=0;labelPosition=right;points=[];portConstraint=eastwest;" parent="DqNzJnJvb0vO9Nc4sZQ4-28" vertex="1">
          <mxGeometry y="110" width="160" height="8" as="geometry" />
        </mxCell>
        <mxCell id="DqNzJnJvb0vO9Nc4sZQ4-31" value="SpawnTile()&#xa;DestroySelf()&#xa;SetTexture()" style="text;strokeColor=none;fillColor=none;align=left;verticalAlign=top;spacingLeft=4;spacingRight=4;overflow=hidden;rotatable=0;points=[[0,0.5],[1,0.5]];portConstraint=eastwest;" parent="DqNzJnJvb0vO9Nc4sZQ4-28" vertex="1">
          <mxGeometry y="118" width="160" height="62" as="geometry" />
        </mxCell>
        <mxCell id="DqNzJnJvb0vO9Nc4sZQ4-32" value="BP_DockTile" style="swimlane;fontStyle=1;align=center;verticalAlign=top;childLayout=stackLayout;horizontal=1;startSize=26;horizontalStack=0;resizeParent=1;resizeParentMax=0;resizeLast=0;collapsible=1;marginBottom=0;" parent="1" vertex="1">
          <mxGeometry x="1180" y="460" width="160" height="180" as="geometry" />
        </mxCell>
        <mxCell id="DqNzJnJvb0vO9Nc4sZQ4-33" value="TileSpawnArrow&#xa;DecorSpawns&#xa;PowerSpawns&#xa;int: DecorDensity&#xa;Texture" style="text;strokeColor=none;fillColor=none;align=left;verticalAlign=top;spacingLeft=4;spacingRight=4;overflow=hidden;rotatable=0;points=[[0,0.5],[1,0.5]];portConstraint=eastwest;" parent="DqNzJnJvb0vO9Nc4sZQ4-32" vertex="1">
          <mxGeometry y="26" width="160" height="84" as="geometry" />
        </mxCell>
        <mxCell id="DqNzJnJvb0vO9Nc4sZQ4-34" value="" style="line;strokeWidth=1;fillColor=none;align=left;verticalAlign=middle;spacingTop=-1;spacingLeft=3;spacingRight=3;rotatable=0;labelPosition=right;points=[];portConstraint=eastwest;" parent="DqNzJnJvb0vO9Nc4sZQ4-32" vertex="1">
          <mxGeometry y="110" width="160" height="8" as="geometry" />
        </mxCell>
        <mxCell id="DqNzJnJvb0vO9Nc4sZQ4-35" value="SpawnTile()&#xa;DestroySelf()&#xa;SetTexture()" style="text;strokeColor=none;fillColor=none;align=left;verticalAlign=top;spacingLeft=4;spacingRight=4;overflow=hidden;rotatable=0;points=[[0,0.5],[1,0.5]];portConstraint=eastwest;" parent="DqNzJnJvb0vO9Nc4sZQ4-32" vertex="1">
          <mxGeometry y="118" width="160" height="62" as="geometry" />
        </mxCell>
        <mxCell id="DqNzJnJvb0vO9Nc4sZQ4-36" value="BP_BridgeTile" style="swimlane;fontStyle=1;align=center;verticalAlign=top;childLayout=stackLayout;horizontal=1;startSize=26;horizontalStack=0;resizeParent=1;resizeParentMax=0;resizeLast=0;collapsible=1;marginBottom=0;" parent="1" vertex="1">
          <mxGeometry x="1020" y="460" width="160" height="180" as="geometry">
            <mxRectangle x="1020" y="460" width="110" height="26" as="alternateBounds" />
          </mxGeometry>
        </mxCell>
        <mxCell id="DqNzJnJvb0vO9Nc4sZQ4-37" value="TileSpawnArrow&#xa;DecorSpawns&#xa;PowerSpawns&#xa;int: DecorDensity&#xa;Texture" style="text;strokeColor=none;fillColor=none;align=left;verticalAlign=top;spacingLeft=4;spacingRight=4;overflow=hidden;rotatable=0;points=[[0,0.5],[1,0.5]];portConstraint=eastwest;" parent="DqNzJnJvb0vO9Nc4sZQ4-36" vertex="1">
          <mxGeometry y="26" width="160" height="84" as="geometry" />
        </mxCell>
        <mxCell id="DqNzJnJvb0vO9Nc4sZQ4-38" value="" style="line;strokeWidth=1;fillColor=none;align=left;verticalAlign=middle;spacingTop=-1;spacingLeft=3;spacingRight=3;rotatable=0;labelPosition=right;points=[];portConstraint=eastwest;" parent="DqNzJnJvb0vO9Nc4sZQ4-36" vertex="1">
          <mxGeometry y="110" width="160" height="8" as="geometry" />
        </mxCell>
        <mxCell id="DqNzJnJvb0vO9Nc4sZQ4-39" value="SpawnTile()&#xa;DestroySelf()&#xa;SetTexture()" style="text;strokeColor=none;fillColor=none;align=left;verticalAlign=top;spacingLeft=4;spacingRight=4;overflow=hidden;rotatable=0;points=[[0,0.5],[1,0.5]];portConstraint=eastwest;" parent="DqNzJnJvb0vO9Nc4sZQ4-36" vertex="1">
          <mxGeometry y="118" width="160" height="62" as="geometry" />
        </mxCell>
        <mxCell id="DqNzJnJvb0vO9Nc4sZQ4-40" value="child" style="edgeLabel;resizable=0;html=1;align=right;verticalAlign=bottom;" parent="1" connectable="0" vertex="1">
          <mxGeometry x="769.9999922841291" y="453.9986111432604" as="geometry">
            <mxPoint x="8" y="3" as="offset" />
          </mxGeometry>
        </mxCell>
        <mxCell id="DqNzJnJvb0vO9Nc4sZQ4-41" value="" style="line;strokeWidth=1;fillColor=none;align=left;verticalAlign=middle;spacingTop=-1;spacingLeft=3;spacingRight=3;rotatable=0;labelPosition=right;points=[];portConstraint=eastwest;direction=south;" parent="1" vertex="1">
          <mxGeometry x="776" y="402" width="8" height="58" as="geometry" />
        </mxCell>
        <mxCell id="DqNzJnJvb0vO9Nc4sZQ4-42" value="child" style="edgeLabel;resizable=0;html=1;align=right;verticalAlign=bottom;" parent="1" connectable="0" vertex="1">
          <mxGeometry x="610.9999922841291" y="457.9986111432604" as="geometry">
            <mxPoint x="8" y="3" as="offset" />
          </mxGeometry>
        </mxCell>
        <mxCell id="DqNzJnJvb0vO9Nc4sZQ4-43" value="" style="line;strokeWidth=1;fillColor=none;align=left;verticalAlign=middle;spacingTop=-1;spacingLeft=3;spacingRight=3;rotatable=0;labelPosition=right;points=[];portConstraint=eastwest;direction=south;" parent="1" vertex="1">
          <mxGeometry x="621" y="402" width="8" height="58" as="geometry" />
        </mxCell>
        <mxCell id="DqNzJnJvb0vO9Nc4sZQ4-44" value="child" style="edgeLabel;resizable=0;html=1;align=right;verticalAlign=bottom;" parent="1" connectable="0" vertex="1">
          <mxGeometry x="919.9999922841291" y="456.9986111432604" as="geometry">
            <mxPoint x="8" y="3" as="offset" />
          </mxGeometry>
        </mxCell>
        <mxCell id="DqNzJnJvb0vO9Nc4sZQ4-45" value="" style="line;strokeWidth=1;fillColor=none;align=left;verticalAlign=middle;spacingTop=-1;spacingLeft=3;spacingRight=3;rotatable=0;labelPosition=right;points=[];portConstraint=eastwest;direction=south;" parent="1" vertex="1">
          <mxGeometry x="930" y="402" width="8" height="58" as="geometry" />
        </mxCell>
        <mxCell id="DqNzJnJvb0vO9Nc4sZQ4-46" value="child" style="edgeLabel;resizable=0;html=1;align=right;verticalAlign=bottom;" parent="1" connectable="0" vertex="1">
          <mxGeometry x="1089.9999922841291" y="455.9986111432604" as="geometry">
            <mxPoint x="8" y="3" as="offset" />
          </mxGeometry>
        </mxCell>
        <mxCell id="DqNzJnJvb0vO9Nc4sZQ4-47" value="" style="line;strokeWidth=1;fillColor=none;align=left;verticalAlign=middle;spacingTop=-1;spacingLeft=3;spacingRight=3;rotatable=0;labelPosition=right;points=[];portConstraint=eastwest;direction=south;" parent="1" vertex="1">
          <mxGeometry x="1096" y="402" width="8" height="58" as="geometry" />
        </mxCell>
        <mxCell id="DqNzJnJvb0vO9Nc4sZQ4-48" value="child" style="edgeLabel;resizable=0;html=1;align=right;verticalAlign=bottom;" parent="1" connectable="0" vertex="1">
          <mxGeometry x="1219.9999922841291" y="453.9986111432604" as="geometry">
            <mxPoint x="8" y="3" as="offset" />
          </mxGeometry>
        </mxCell>
        <mxCell id="DqNzJnJvb0vO9Nc4sZQ4-49" value="" style="line;strokeWidth=1;fillColor=none;align=left;verticalAlign=middle;spacingTop=-1;spacingLeft=3;spacingRight=3;rotatable=0;labelPosition=right;points=[];portConstraint=eastwest;direction=south;" parent="1" vertex="1">
          <mxGeometry x="1232" y="402" width="8" height="58" as="geometry" />
        </mxCell>
        <mxCell id="DqNzJnJvb0vO9Nc4sZQ4-54" value="BP_Hazard" style="swimlane;fontStyle=1;align=center;verticalAlign=top;childLayout=stackLayout;horizontal=1;startSize=26;horizontalStack=0;resizeParent=1;resizeParentMax=0;resizeLast=0;collapsible=1;marginBottom=0;" parent="1" vertex="1">
          <mxGeometry x="680" y="160" width="160" height="180" as="geometry" />
        </mxCell>
        <mxCell id="DqNzJnJvb0vO9Nc4sZQ4-55" value="Texture" style="text;strokeColor=none;fillColor=none;align=left;verticalAlign=top;spacingLeft=4;spacingRight=4;overflow=hidden;rotatable=0;points=[[0,0.5],[1,0.5]];portConstraint=eastwest;" parent="DqNzJnJvb0vO9Nc4sZQ4-54" vertex="1">
          <mxGeometry y="26" width="160" height="84" as="geometry" />
        </mxCell>
        <mxCell id="DqNzJnJvb0vO9Nc4sZQ4-56" value="" style="line;strokeWidth=1;fillColor=none;align=left;verticalAlign=middle;spacingTop=-1;spacingLeft=3;spacingRight=3;rotatable=0;labelPosition=right;points=[];portConstraint=eastwest;" parent="DqNzJnJvb0vO9Nc4sZQ4-54" vertex="1">
          <mxGeometry y="110" width="160" height="8" as="geometry" />
        </mxCell>
        <mxCell id="DqNzJnJvb0vO9Nc4sZQ4-57" value="DestroySelf()&#xa;" style="text;strokeColor=none;fillColor=none;align=left;verticalAlign=top;spacingLeft=4;spacingRight=4;overflow=hidden;rotatable=0;points=[[0,0.5],[1,0.5]];portConstraint=eastwest;" parent="DqNzJnJvb0vO9Nc4sZQ4-54" vertex="1">
          <mxGeometry y="118" width="160" height="62" as="geometry" />
        </mxCell>
        <mxCell id="DqNzJnJvb0vO9Nc4sZQ4-60" value="BP_NpcHazardSpawner" style="swimlane;fontStyle=1;align=center;verticalAlign=top;childLayout=stackLayout;horizontal=1;startSize=26;horizontalStack=0;resizeParent=1;resizeParentMax=0;resizeLast=0;collapsible=1;marginBottom=0;" parent="1" vertex="1">
          <mxGeometry x="460" y="160" width="160" height="180" as="geometry" />
        </mxCell>
        <mxCell id="DqNzJnJvb0vO9Nc4sZQ4-61" value="SpawnBox" style="text;strokeColor=none;fillColor=none;align=left;verticalAlign=top;spacingLeft=4;spacingRight=4;overflow=hidden;rotatable=0;points=[[0,0.5],[1,0.5]];portConstraint=eastwest;" parent="DqNzJnJvb0vO9Nc4sZQ4-60" vertex="1">
          <mxGeometry y="26" width="160" height="84" as="geometry" />
        </mxCell>
        <mxCell id="DqNzJnJvb0vO9Nc4sZQ4-62" value="" style="line;strokeWidth=1;fillColor=none;align=left;verticalAlign=middle;spacingTop=-1;spacingLeft=3;spacingRight=3;rotatable=0;labelPosition=right;points=[];portConstraint=eastwest;" parent="DqNzJnJvb0vO9Nc4sZQ4-60" vertex="1">
          <mxGeometry y="110" width="160" height="8" as="geometry" />
        </mxCell>
        <mxCell id="DqNzJnJvb0vO9Nc4sZQ4-63" value="SpawnCiv()&#xa;SpawnEnemy()&#xa;SpawnHazard()" style="text;strokeColor=none;fillColor=none;align=left;verticalAlign=top;spacingLeft=4;spacingRight=4;overflow=hidden;rotatable=0;points=[[0,0.5],[1,0.5]];portConstraint=eastwest;" parent="DqNzJnJvb0vO9Nc4sZQ4-60" vertex="1">
          <mxGeometry y="118" width="160" height="62" as="geometry" />
        </mxCell>
        <mxCell id="siddE4iYKj-0myYR6mlJ-1" value="PlayerCharacter" style="swimlane;fontStyle=1;align=center;verticalAlign=top;childLayout=stackLayout;horizontal=1;startSize=26;horizontalStack=0;resizeParent=1;resizeParentMax=0;resizeLast=0;collapsible=1;marginBottom=0;" vertex="1" parent="1">
          <mxGeometry x="220" y="780" width="160" height="144" as="geometry" />
        </mxCell>
        <mxCell id="siddE4iYKj-0myYR6mlJ-2" value="Health: Float&#xa;CameraSpeed: Float&#xa;Lives: Int&#xa;MinCamera&#xa;MaxCamera" style="text;strokeColor=none;fillColor=none;align=left;verticalAlign=top;spacingLeft=4;spacingRight=4;overflow=hidden;rotatable=0;points=[[0,0.5],[1,0.5]];portConstraint=eastwest;" vertex="1" parent="siddE4iYKj-0myYR6mlJ-1">
          <mxGeometry y="26" width="160" height="84" as="geometry" />
        </mxCell>
        <mxCell id="siddE4iYKj-0myYR6mlJ-3" value="" style="line;strokeWidth=1;fillColor=none;align=left;verticalAlign=middle;spacingTop=-1;spacingLeft=3;spacingRight=3;rotatable=0;labelPosition=right;points=[];portConstraint=eastwest;" vertex="1" parent="siddE4iYKj-0myYR6mlJ-1">
          <mxGeometry y="110" width="160" height="8" as="geometry" />
        </mxCell>
        <mxCell id="siddE4iYKj-0myYR6mlJ-4" value="Movement()" style="text;strokeColor=none;fillColor=none;align=left;verticalAlign=top;spacingLeft=4;spacingRight=4;overflow=hidden;rotatable=0;points=[[0,0.5],[1,0.5]];portConstraint=eastwest;" vertex="1" parent="siddE4iYKj-0myYR6mlJ-1">
          <mxGeometry y="118" width="160" height="26" as="geometry" />
        </mxCell>
        <mxCell id="siddE4iYKj-0myYR6mlJ-5" value="StartMenu" style="swimlane;fontStyle=1;align=center;verticalAlign=top;childLayout=stackLayout;horizontal=1;startSize=26;horizontalStack=0;resizeParent=1;resizeParentMax=0;resizeLast=0;collapsible=1;marginBottom=0;" vertex="1" parent="1">
          <mxGeometry x="690" y="780" width="160" height="80" as="geometry" />
        </mxCell>
        <mxCell id="siddE4iYKj-0myYR6mlJ-6" value="StartKey: bool&#xa;HighScore: int&#xa;HighScoreName: String" style="text;strokeColor=none;fillColor=none;align=left;verticalAlign=top;spacingLeft=4;spacingRight=4;overflow=hidden;rotatable=0;points=[[0,0.5],[1,0.5]];portConstraint=eastwest;" vertex="1" parent="siddE4iYKj-0myYR6mlJ-5">
          <mxGeometry y="26" width="160" height="54" as="geometry" />
        </mxCell>
        <mxCell id="siddE4iYKj-0myYR6mlJ-9" value="PlayerController" style="swimlane;fontStyle=1;align=center;verticalAlign=top;childLayout=stackLayout;horizontal=1;startSize=26;horizontalStack=0;resizeParent=1;resizeParentMax=0;resizeLast=0;collapsible=1;marginBottom=0;" vertex="1" parent="1">
          <mxGeometry x="430" y="780" width="220" height="230" as="geometry" />
        </mxCell>
        <mxCell id="siddE4iYKj-0myYR6mlJ-10" value="Score: Int&#xa;IsPaused: Bool&#xa;Ammo1: Int&#xa;Ammo2: Int&#xa;Ammo3: Int&#xa;Ammo4: Int&#xa;Projectile: Int" style="text;strokeColor=none;fillColor=none;align=left;verticalAlign=top;spacingLeft=4;spacingRight=4;overflow=hidden;rotatable=0;points=[[0,0.5],[1,0.5]];portConstraint=eastwest;" vertex="1" parent="siddE4iYKj-0myYR6mlJ-9">
          <mxGeometry y="26" width="220" height="104" as="geometry" />
        </mxCell>
        <mxCell id="siddE4iYKj-0myYR6mlJ-11" value="" style="line;strokeWidth=1;fillColor=none;align=left;verticalAlign=middle;spacingTop=-1;spacingLeft=3;spacingRight=3;rotatable=0;labelPosition=right;points=[];portConstraint=eastwest;" vertex="1" parent="siddE4iYKj-0myYR6mlJ-9">
          <mxGeometry y="130" width="220" height="8" as="geometry" />
        </mxCell>
        <mxCell id="siddE4iYKj-0myYR6mlJ-12" value="Movement()&#xa;Pause()&#xa;SetAmmo():Returns int&#xa;SetProjectiles(): Returns int projectile&#xa;SetScore(): Returns int score&#xa;Shoot()" style="text;strokeColor=none;fillColor=none;align=left;verticalAlign=top;spacingLeft=4;spacingRight=4;overflow=hidden;rotatable=0;points=[[0,0.5],[1,0.5]];portConstraint=eastwest;" vertex="1" parent="siddE4iYKj-0myYR6mlJ-9">
          <mxGeometry y="138" width="220" height="92" as="geometry" />
        </mxCell>
        <mxCell id="siddE4iYKj-0myYR6mlJ-13" value="EnterHighScore" style="swimlane;fontStyle=1;align=center;verticalAlign=top;childLayout=stackLayout;horizontal=1;startSize=26;horizontalStack=0;resizeParent=1;resizeParentMax=0;resizeLast=0;collapsible=1;marginBottom=0;" vertex="1" parent="1">
          <mxGeometry x="690" y="900" width="160" height="80" as="geometry" />
        </mxCell>
        <mxCell id="siddE4iYKj-0myYR6mlJ-14" value="Score: int&#xa;Name: string&#xa;Save: bool" style="text;strokeColor=none;fillColor=none;align=left;verticalAlign=top;spacingLeft=4;spacingRight=4;overflow=hidden;rotatable=0;points=[[0,0.5],[1,0.5]];portConstraint=eastwest;" vertex="1" parent="siddE4iYKj-0myYR6mlJ-13">
          <mxGeometry y="26" width="160" height="54" as="geometry" />
        </mxCell>
        <mxCell id="siddE4iYKj-0myYR6mlJ-17" value="Classname" style="swimlane;fontStyle=1;align=center;verticalAlign=top;childLayout=stackLayout;horizontal=1;startSize=26;horizontalStack=0;resizeParent=1;resizeParentMax=0;resizeLast=0;collapsible=1;marginBottom=0;" vertex="1" parent="1">
          <mxGeometry x="900" y="780" width="160" height="70" as="geometry" />
        </mxCell>
        <mxCell id="siddE4iYKj-0myYR6mlJ-18" value="Resume: bool&#xa;Exit: bool" style="text;strokeColor=none;fillColor=none;align=left;verticalAlign=top;spacingLeft=4;spacingRight=4;overflow=hidden;rotatable=0;points=[[0,0.5],[1,0.5]];portConstraint=eastwest;" vertex="1" parent="siddE4iYKj-0myYR6mlJ-17">
          <mxGeometry y="26" width="160" height="44" as="geometry" />
        </mxCell>
      </root>
    </mxGraphModel>
  </diagram>
</mxfile>
